<svg width="22" height="29" viewBox="0 0 22 29" fill="none" xmlns="http://www.w3.org/2000/svg">
<path d="M21.4054 8.6059L21.4054 24.9919C21.4054 25.4675 21.3091 25.9383 21.1219 26.3777C20.9347 26.817 20.6603 27.2162 20.3145 27.5525C19.9686 27.8887 19.558 28.1555 19.106 28.3374C18.6541 28.5194 18.1697 28.6131 17.6806 28.6131H3.72486C3.2357 28.6131 2.75134 28.5194 2.29942 28.3374C1.8475 28.1555 1.43687 27.8887 1.09098 27.5525C0.7451 27.2162 0.470729 26.817 0.283537 26.3777C0.0963458 25.9383 -2.8174e-07 25.4675 0 24.9919V3.62115C2.66087e-07 3.14561 0.0963468 2.67473 0.283539 2.23539C0.470731 1.79605 0.745102 1.39686 1.09099 1.0606C1.43687 0.72435 1.8475 0.457619 2.29942 0.27564C2.75134 0.0936613 3.2357 -1.44969e-06 3.72486 0L12.5971 2.80865e-05L21.4054 8.6059Z" fill="#FF0000"/>
<path d="M12.9852 0.377563C12.271 2.21619 10.6179 5.03502 12.2848 7.40439C12.7178 8.06156 15.3557 9.07745 17.0113 9.66366C18.068 10.0378 18.9373 11.2174 18.9373 12.3406L19.0759 23.278C19.0759 25.2779 17.4093 26.8983 15.3522 26.8983H1.39648C1.08611 26.8983 0.784848 26.8602 0.496582 26.7907C1.15944 27.9168 2.39133 28.612 3.72588 28.6133H17.6816C19.7396 28.6138 21.408 26.9917 21.4074 24.9909V8.60447L12.9852 0.377563Z" fill="#D40000"/>
<path d="M1.92719 2.22504C2.06702 2.22448 2.20139 2.27925 2.301 2.37739C2.40061 2.47553 2.45736 2.60908 2.45887 2.7489V4.23448C2.45914 4.30438 2.44558 4.37364 2.41896 4.43827C2.39234 4.50291 2.35318 4.56163 2.30376 4.61105C2.25433 4.66048 2.19561 4.69963 2.13098 4.72625C2.06635 4.75288 1.99709 4.76644 1.92719 4.76616C1.78736 4.76465 1.65381 4.7079 1.55567 4.6083C1.45753 4.50869 1.40277 4.37431 1.40332 4.23448V2.7489C1.40482 2.61043 1.46049 2.47805 1.55841 2.38013C1.65633 2.2822 1.78871 2.22653 1.92719 2.22504Z" fill="white"/>
<path d="M1.92719 5.11774C1.99709 5.11746 2.06635 5.13103 2.13098 5.15765C2.19561 5.18427 2.25433 5.22343 2.30376 5.27285C2.35318 5.32228 2.39234 5.381 2.41896 5.44563C2.44558 5.51026 2.45915 5.57952 2.45887 5.64942V5.86835C2.45736 6.00817 2.40061 6.14172 2.301 6.23986C2.2014 6.33801 2.06702 6.39277 1.92719 6.39221C1.78871 6.39072 1.65633 6.33505 1.55841 6.23713C1.46049 6.13921 1.40482 6.00682 1.40332 5.86835V5.64942C1.40277 5.50959 1.45753 5.37521 1.55567 5.27561C1.65381 5.176 1.78736 5.11925 1.92719 5.11774Z" fill="white"/>
<path d="M12.5982 0L11.4407 4.52358C11.3637 4.82448 11.3513 5.1377 11.4043 5.44351C11.4573 5.74932 11.5745 6.0411 11.7486 6.30048C11.9226 6.55986 12.1498 6.78123 12.4157 6.95063C12.6816 7.12004 12.9806 7.23382 13.2937 7.28481L21.4065 8.60587L12.5982 0Z" fill="#FF8080"/>
<path d="M10.7251 11.3853C10.1086 11.3941 9.67964 11.7862 9.47147 12.0204C8.98872 12.5634 8.96663 13.3076 9.12805 14.0291C9.28948 14.7506 9.63518 15.5185 10.0569 16.2964C10.1042 16.3837 10.1567 16.4427 10.2059 16.5302C9.3578 18.0736 8.19123 19.7538 7.1731 21.0938C5.85124 21.4081 4.58606 21.5622 3.82589 22.4178C3.18939 23.1351 3.14515 24.2249 3.82589 24.8589C4.12201 25.1189 4.5363 25.2506 4.8975 25.2561C5.23672 25.2522 5.52622 25.1556 5.7581 25.0141C6.64678 24.4715 7.22549 23.3194 7.86614 21.9875L13.0607 20.7773C13.8401 21.7434 14.6511 22.6903 15.6177 22.9888C16.0659 23.1272 16.5391 23.1108 16.9624 22.9578C17.3856 22.8047 17.7812 22.5019 17.9616 22.0351C18.2763 21.1871 17.9292 20.2475 17.1175 19.8234C16.4873 19.4834 15.702 19.4255 14.8274 19.4635C14.3805 19.4828 13.9083 19.5307 13.429 19.6C12.8624 18.7366 12.0998 17.5956 11.4347 16.4845C11.8249 15.7101 12.1637 14.9478 12.3098 14.2482C12.4728 13.4671 12.4402 12.6977 11.9974 12.105C11.6797 11.6029 11.195 11.3885 10.7251 11.3853ZM11.1513 12.7237C11.344 12.9724 11.4094 13.3969 11.2774 14.0291C11.2041 14.3804 10.9559 14.852 10.7768 15.2807C10.52 14.7515 10.2508 14.209 10.1583 13.7953C10.0341 13.2402 10.1194 12.9324 10.2617 12.7237C10.3617 12.5604 10.4972 12.4604 10.6915 12.4492C10.8962 12.4377 11.0319 12.5698 11.1513 12.7237ZM10.8306 17.5087C11.3284 18.3018 11.8583 19.1269 12.2911 19.7967L8.81567 20.6408C9.51669 19.5773 10.2522 18.4923 10.8306 17.5087ZM16.6107 20.7525C16.9928 20.9587 17.1077 21.2853 16.9686 21.6524C16.8377 21.9906 16.2078 22.0816 15.9301 21.9813C15.5529 21.8648 14.945 21.1657 14.3888 20.5891C14.5427 20.5509 14.7297 20.525 14.875 20.5187C15.4342 20.4941 16.0889 20.5073 16.6107 20.7525ZM6.22562 22.5585C5.85783 23.1564 5.44359 23.9685 5.20159 24.1162C4.96231 24.2808 4.68607 24.2195 4.5458 24.0769C4.35192 23.89 4.31852 23.468 4.62441 23.1233C4.93615 22.8234 5.38154 22.6979 6.22562 22.5585Z" fill="white"/>
</svg>
